<svg width="31" height="41" viewBox="0 0 31 41" fill="none" xmlns="http://www.w3.org/2000/svg">
<path d="M13.952 40.784C9.92 40.784 6.70933 39.6827 4.32 37.48C1.968 35.2773 0.792 32.1973 0.792 28.24V24.544H8.184V28.24C8.184 29.9947 8.66933 31.376 9.64 32.384C10.6107 33.3547 11.9733 33.84 13.728 33.84C15.3707 33.84 16.64 33.3547 17.536 32.384C18.4693 31.4133 18.936 30.032 18.936 28.24V7.52H12.216V0.799997H30.808V7.52H26.328V28.24C26.328 32.3093 25.2267 35.4267 23.024 37.592C20.8213 39.72 17.7973 40.784 13.952 40.784Z" fill="url(#paint0_linear_146_705)"/>
<defs>
<linearGradient id="paint0_linear_146_705" x1="10.8868" y1="-15" x2="36.2564" y2="-13.3962" gradientUnits="userSpaceOnUse">
<stop stop-color="#92DEED"/>
<stop offset="1" stop-color="white"/>
</linearGradient>
</defs>
</svg>
