<svg width="1920" height="1139" viewBox="0 0 1920 1139" fill="none" xmlns="http://www.w3.org/2000/svg">
<g opacity="0.25" clip-path="url(#clip0_130_18)">
<path d="M205.413 -147.435C159.819 -32.1301 217.008 105.415 314.781 181.644C412.554 257.873 541.371 282.643 665.329 284.884C789.287 287.125 912.93 269.346 1036.88 271.243C1160.83 273.14 1289.69 297.11 1388.11 372.504C1507.46 463.95 1562.82 614.184 1651.02 735.97C1790.04 927.96 2021.27 1049.84 2258.21 1056C2380.34 1059.19 2522.06 1017.86 2566.14 903.862" stroke="white" stroke-width="0.85" stroke-linecap="round" stroke-linejoin="round"/>
<path d="M204.661 -177.659C159.067 -62.3545 216.256 75.1909 314.029 151.42C411.802 227.649 540.619 252.418 664.577 254.66C788.535 256.901 912.178 239.122 1036.13 241.019C1160.08 242.916 1288.94 266.886 1387.36 342.279C1506.71 433.725 1562.07 583.959 1650.27 705.745C1789.28 897.736 2020.52 1019.62 2257.46 1025.78C2379.59 1028.97 2521.31 987.638 2565.39 873.638" stroke="white" stroke-width="0.85" stroke-linecap="round" stroke-linejoin="round"/>
<path d="M203.911 -207.884C158.317 -92.5789 215.506 44.9665 313.279 121.195C411.052 197.424 539.869 222.194 663.827 224.435C787.785 226.676 911.428 208.898 1035.38 210.794C1159.33 212.691 1288.19 236.662 1386.61 312.055C1505.96 403.501 1561.32 553.735 1649.52 675.521C1788.53 867.512 2019.77 989.396 2256.71 995.554C2378.84 998.741 2520.56 957.414 2564.64 843.414" stroke="white" stroke-width="0.85" stroke-linecap="round" stroke-linejoin="round"/>
<path d="M203.188 -238.1C157.594 -122.796 214.783 14.7497 312.556 90.9787C410.329 167.208 539.146 191.977 663.104 194.218C787.063 196.46 910.705 178.681 1034.66 180.578C1158.61 182.474 1287.47 206.445 1385.89 281.838C1505.24 373.284 1560.59 523.518 1648.8 645.304C1787.81 837.295 2019.05 959.179 2255.98 965.338C2378.12 968.524 2519.84 927.197 2563.92 813.197" stroke="white" stroke-width="0.85" stroke-linecap="round" stroke-linejoin="round"/>
<path d="M202.429 -268.296C156.835 -152.991 214.024 -15.4454 311.796 60.7835C409.569 137.012 538.387 161.782 662.345 164.023C786.303 166.265 909.946 148.486 1033.9 150.383C1157.85 152.279 1286.71 176.25 1385.13 251.643C1504.48 343.089 1559.83 493.323 1648.04 615.109C1787.05 807.1 2018.29 928.984 2255.23 935.142C2377.36 938.329 2519.08 897.002 2563.16 783.002" stroke="white" stroke-width="0.85" stroke-linecap="round" stroke-linejoin="round"/>
<path d="M201.677 -298.52C156.083 -183.215 213.272 -45.6695 311.045 30.5595C408.818 106.788 537.635 131.558 661.593 133.799C785.551 136.04 909.194 118.262 1033.14 120.158C1157.1 122.055 1285.96 146.026 1384.38 221.419C1503.73 312.865 1559.08 463.099 1647.29 584.885C1786.3 776.876 2017.54 898.76 2254.47 904.918C2376.61 908.105 2518.32 866.778 2562.41 752.778" stroke="white" stroke-width="0.85" stroke-linecap="round" stroke-linejoin="round"/>
<path d="M200.925 -328.744C155.331 -213.439 212.52 -75.8939 310.293 0.335052C408.065 76.564 536.883 101.333 660.841 103.575C784.799 105.816 908.442 88.0373 1032.39 89.934C1156.34 91.8307 1285.21 115.801 1383.62 191.195C1502.98 282.641 1558.33 432.875 1646.54 554.661C1785.55 746.651 2016.79 868.536 2253.72 874.694C2375.85 877.88 2517.57 836.554 2561.66 722.553" stroke="white" stroke-width="0.85" stroke-linecap="round" stroke-linejoin="round"/>
<path d="M200.202 -358.961C154.608 -243.656 211.797 -106.111 309.57 -29.8818C407.343 46.3472 536.16 71.1167 660.118 73.358C784.076 75.5992 907.719 57.8205 1031.67 59.7172C1155.62 61.6139 1284.48 85.5844 1382.9 160.978C1502.25 252.424 1557.61 402.658 1645.81 524.444C1784.83 716.434 2016.06 838.319 2253 844.477C2375.13 847.664 2516.85 806.337 2560.93 692.336" stroke="white" stroke-width="0.85" stroke-linecap="round" stroke-linejoin="round"/>
<path d="M199.452 -389.185C153.858 -273.88 211.047 -136.335 308.82 -60.1061C406.593 16.1229 535.41 40.8923 659.368 43.1336C783.326 45.3749 906.969 27.5962 1030.92 29.4929C1154.87 31.3896 1283.73 55.3601 1382.15 130.754C1501.5 222.2 1556.86 372.434 1645.06 494.22C1784.08 686.21 2015.31 808.095 2252.25 814.253C2374.38 817.439 2516.1 776.113 2560.18 662.112" stroke="white" stroke-width="0.85" stroke-linecap="round" stroke-linejoin="round"/>
<path d="M198.692 -419.38C153.098 -304.075 210.287 -166.53 308.06 -90.3009C405.833 -14.072 534.65 10.6975 658.608 12.9388C782.567 15.1801 906.209 -2.59868 1030.16 -0.70197C1154.11 1.19474 1282.97 25.1653 1381.39 100.559C1500.74 192.005 1556.1 342.239 1644.3 464.025C1783.32 656.015 2014.55 777.9 2251.49 784.058C2373.62 787.244 2515.34 745.918 2559.42 631.917" stroke="white" stroke-width="0.85" stroke-linecap="round" stroke-linejoin="round"/>
<path d="M197.94 -449.604C152.346 -334.3 209.535 -196.754 307.308 -120.525C405.081 -44.2964 533.898 -19.5269 657.856 -17.2856C781.814 -15.0443 905.457 -32.8231 1029.41 -30.9264C1153.36 -29.0297 1282.22 -5.05912 1380.64 70.3343C1499.99 161.78 1555.34 312.014 1643.55 433.8C1782.56 625.791 2013.8 747.676 2250.74 753.834C2372.87 757.02 2514.59 715.693 2558.67 601.693" stroke="white" stroke-width="0.85" stroke-linecap="round" stroke-linejoin="round"/>
<path d="M197.218 -479.821C151.624 -364.516 208.813 -226.971 306.586 -150.742C404.359 -74.5132 533.176 -49.7437 657.134 -47.5025C781.092 -45.2612 904.735 -63.0399 1028.69 -61.1432C1152.64 -59.2465 1281.5 -35.276 1379.92 40.1174C1499.27 131.563 1554.62 281.797 1642.83 403.583C1781.84 595.574 2013.08 717.459 2250.01 723.617C2372.15 726.803 2513.87 685.476 2557.95 571.476" stroke="white" stroke-width="0.85" stroke-linecap="round" stroke-linejoin="round"/>
<path d="M196.466 -510.046C150.872 -394.741 208.061 -257.195 305.834 -180.966C403.606 -104.738 532.424 -79.968 656.382 -77.7267C780.34 -75.4855 903.983 -93.2642 1027.93 -91.3675C1151.88 -89.4708 1280.75 -65.5003 1379.16 9.89318C1498.52 101.339 1553.87 251.573 1642.08 373.359C1781.09 565.35 2012.33 687.234 2249.26 693.393C2371.4 696.579 2513.11 655.252 2557.2 541.252" stroke="white" stroke-width="0.85" stroke-linecap="round" stroke-linejoin="round"/>
<path d="M195.708 -540.24C150.114 -424.936 207.303 -287.39 305.076 -211.161C402.849 -134.932 531.666 -110.163 655.624 -107.922C779.582 -105.68 903.225 -123.459 1027.18 -121.562C1151.13 -119.666 1279.99 -95.6952 1378.41 -20.3017C1497.76 71.1443 1553.11 221.378 1641.32 343.164C1780.33 535.155 2011.57 657.039 2248.5 663.198C2370.64 666.384 2512.36 625.057 2556.44 511.057" stroke="white" stroke-width="0.85" stroke-linecap="round" stroke-linejoin="round"/>
<path d="M194.956 -570.465C149.362 -455.16 206.551 -317.615 304.324 -241.386C402.097 -165.157 530.914 -140.387 654.872 -138.146C778.83 -135.905 902.473 -153.683 1026.42 -151.787C1150.37 -149.89 1279.24 -125.92 1377.65 -50.5261C1497.01 40.9199 1552.36 191.154 1640.57 312.94C1779.58 504.93 2010.82 626.815 2247.75 632.973C2369.89 636.16 2511.6 594.833 2555.69 480.832" stroke="white" stroke-width="0.85" stroke-linecap="round" stroke-linejoin="round"/>
<path d="M194.233 -600.682C148.639 -485.377 205.828 -347.832 303.601 -271.603C401.374 -195.374 530.191 -170.604 654.149 -168.363C778.108 -166.122 901.75 -183.9 1025.7 -182.004C1149.65 -180.107 1278.51 -156.136 1376.93 -80.7429C1496.29 10.7031 1551.64 160.937 1639.84 282.723C1778.86 474.714 2010.09 596.598 2247.03 602.756C2369.16 605.943 2510.88 564.616 2554.96 450.616" stroke="white" stroke-width="0.85" stroke-linecap="round" stroke-linejoin="round"/>
<path d="M193.481 -630.906C147.887 -515.601 205.076 -378.056 302.849 -301.827C400.622 -225.598 529.439 -200.828 653.397 -198.587C777.356 -196.346 900.998 -214.125 1024.95 -212.228C1148.9 -210.331 1277.76 -186.361 1376.18 -110.967C1495.53 -19.5213 1550.89 130.713 1639.09 252.499C1778.1 444.489 2009.34 566.374 2246.28 572.532C2368.41 575.718 2510.13 534.392 2554.21 420.391" stroke="white" stroke-width="0.85" stroke-linecap="round" stroke-linejoin="round"/>
<path d="M192.722 -661.101C147.128 -545.796 204.317 -408.251 302.09 -332.022C399.862 -255.793 528.68 -231.023 652.638 -228.782C776.596 -226.541 900.239 -244.319 1024.19 -242.423C1148.14 -240.526 1277 -216.556 1375.42 -141.162C1494.77 -49.7161 1550.13 100.518 1638.33 222.304C1777.35 414.294 2008.58 536.179 2245.52 542.337C2367.65 545.524 2509.37 504.197 2553.45 390.196" stroke="white" stroke-width="0.85" stroke-linecap="round" stroke-linejoin="round"/>
<path d="M191.97 -691.325C146.376 -576.02 203.565 -438.475 301.337 -362.246C399.11 -286.017 527.928 -261.248 651.886 -259.006C775.844 -256.765 899.487 -274.544 1023.44 -272.647C1147.39 -270.75 1276.25 -246.78 1374.67 -171.386C1494.02 -79.9403 1549.37 70.2937 1637.58 192.08C1776.59 384.07 2007.83 505.955 2244.77 512.113C2366.9 515.299 2508.62 473.973 2552.7 359.972" stroke="white" stroke-width="0.85" stroke-linecap="round" stroke-linejoin="round"/>
<path d="M191.249 -721.542C145.655 -606.237 202.844 -468.692 300.617 -392.463C398.39 -316.234 527.207 -291.464 651.165 -289.223C775.123 -286.982 898.766 -304.761 1022.72 -302.864C1146.67 -300.967 1275.53 -276.997 1373.95 -201.603C1493.3 -110.157 1548.65 40.0768 1636.86 161.863C1775.87 353.853 2007.11 475.738 2244.05 481.896C2366.18 485.082 2507.9 443.756 2551.98 329.755" stroke="white" stroke-width="0.85" stroke-linecap="round" stroke-linejoin="round"/>
<path d="M190.497 -751.766C144.903 -636.462 202.092 -498.916 299.865 -422.687C397.638 -346.458 526.455 -321.689 650.413 -319.448C774.371 -317.206 898.014 -334.985 1021.97 -333.088C1145.92 -331.192 1274.78 -307.221 1373.2 -231.828C1492.55 -140.382 1547.9 9.85242 1636.11 131.638C1775.12 323.629 2006.36 445.514 2243.29 451.672C2365.43 454.858 2507.14 413.531 2551.23 299.531" stroke="white" stroke-width="0.85" stroke-linecap="round" stroke-linejoin="round"/>
<path d="M189.745 -781.991C144.151 -666.686 201.34 -529.14 299.113 -452.912C396.886 -376.683 525.703 -351.913 649.661 -349.672C773.619 -347.431 897.262 -365.209 1021.21 -363.312C1145.16 -361.416 1274.03 -337.445 1372.44 -262.052C1491.8 -170.606 1547.15 -20.3718 1635.36 101.414C1774.37 293.405 2005.61 415.289 2242.54 421.447C2364.67 424.634 2506.39 383.307 2550.48 269.307" stroke="white" stroke-width="0.85" stroke-linecap="round" stroke-linejoin="round"/>
<path d="M924.86 684.02C924.86 682.66 925.167 681.44 925.78 680.36C926.393 679.267 927.227 678.413 928.28 677.8C929.347 677.187 930.527 676.88 931.82 676.88C933.34 676.88 934.667 677.247 935.8 677.98C936.933 678.713 937.76 679.753 938.28 681.1L936.1 681.1C935.713 680.26 935.153 679.613 934.42 679.16C933.7 678.707 932.833 678.48 931.82 678.48C930.847 678.48 929.973 678.707 929.2 679.16C928.427 679.613 927.82 680.26 927.38 681.1C926.94 681.927 926.72 682.9 926.72 684.02C926.72 685.127 926.94 686.1 927.38 686.94C927.82 687.767 928.427 688.407 929.2 688.86C929.973 689.313 930.847 689.54 931.82 689.54C932.833 689.54 933.7 689.32 934.42 688.88C935.153 688.427 935.713 687.78 936.1 686.94L938.28 686.94C937.76 688.273 936.933 689.307 935.8 690.04C934.667 690.76 933.34 691.12 931.82 691.12C930.527 691.12 929.347 690.82 928.28 690.22C927.227 689.607 926.393 688.76 925.78 687.68C925.167 686.6 924.86 685.38 924.86 684.02ZM942.809 681.82C943.129 681.193 943.583 680.707 944.169 680.36C944.769 680.013 945.496 679.84 946.349 679.84L946.349 681.72L945.869 681.72C943.829 681.72 942.809 682.827 942.809 685.04L942.809 691L940.989 691L940.989 680.04L942.809 680.04L942.809 681.82ZM958.45 685.1C958.45 685.447 958.43 685.813 958.39 686.2L949.63 686.2C949.697 687.28 950.063 688.127 950.73 688.74C951.41 689.34 952.23 689.64 953.19 689.64C953.977 689.64 954.63 689.46 955.15 689.1C955.683 688.727 956.057 688.233 956.27 687.62L958.23 687.62C957.937 688.673 957.35 689.533 956.47 690.2C955.59 690.853 954.497 691.18 953.19 691.18C952.15 691.18 951.217 690.947 950.39 690.48C949.577 690.013 948.937 689.353 948.47 688.5C948.003 687.633 947.77 686.633 947.77 685.5C947.77 684.367 947.997 683.373 948.45 682.52C948.903 681.667 949.537 681.013 950.35 680.56C951.177 680.093 952.123 679.86 953.19 679.86C954.23 679.86 955.15 680.087 955.95 680.54C956.75 680.993 957.363 681.62 957.79 682.42C958.23 683.207 958.45 684.1 958.45 685.1ZM956.57 684.72C956.57 684.027 956.417 683.433 956.11 682.94C955.803 682.433 955.383 682.053 954.85 681.8C954.33 681.533 953.75 681.4 953.11 681.4C952.19 681.4 951.403 681.693 950.75 682.28C950.11 682.867 949.743 683.68 949.65 684.72L956.57 684.72ZM960.173 685.48C960.173 684.36 960.399 683.38 960.853 682.54C961.306 681.687 961.926 681.027 962.713 680.56C963.513 680.093 964.399 679.86 965.373 679.86C966.333 679.86 967.166 680.067 967.873 680.48C968.579 680.893 969.106 681.413 969.453 682.04L969.453 680.04L971.293 680.04L971.293 691L969.453 691L969.453 688.96C969.093 689.6 968.553 690.133 967.833 690.56C967.126 690.973 966.299 691.18 965.353 691.18C964.379 691.18 963.499 690.94 962.713 690.46C961.926 689.98 961.306 689.307 960.853 688.44C960.399 687.573 960.173 686.587 960.173 685.48ZM969.453 685.5C969.453 684.673 969.286 683.953 968.953 683.34C968.619 682.727 968.166 682.26 967.593 681.94C967.033 681.607 966.413 681.44 965.733 681.44C965.053 681.44 964.433 681.6 963.873 681.92C963.313 682.24 962.866 682.707 962.533 683.32C962.199 683.933 962.033 684.653 962.033 685.48C962.033 686.32 962.199 687.053 962.533 687.68C962.866 688.293 963.313 688.767 963.873 689.1C964.433 689.42 965.053 689.58 965.733 689.58C966.413 689.58 967.033 689.42 967.593 689.1C968.166 688.767 968.619 688.293 968.953 687.68C969.286 687.053 969.453 686.327 969.453 685.5ZM976.588 681.54L976.588 688C976.588 688.533 976.701 688.913 976.928 689.14C977.155 689.353 977.548 689.46 978.108 689.46L979.448 689.46L979.448 691L977.808 691C976.795 691 976.035 690.767 975.528 690.3C975.021 689.833 974.768 689.067 974.768 688L974.768 681.54L973.348 681.54L973.348 680.04L974.768 680.04L974.768 677.28L976.588 677.28L976.588 680.04L979.448 680.04L979.448 681.54L976.588 681.54ZM991.653 685.1C991.653 685.447 991.633 685.813 991.593 686.2L982.833 686.2C982.9 687.28 983.267 688.127 983.933 688.74C984.613 689.34 985.433 689.64 986.393 689.64C987.18 689.64 987.833 689.46 988.353 689.1C988.887 688.727 989.26 688.233 989.473 687.62L991.433 687.62C991.14 688.673 990.553 689.533 989.673 690.2C988.793 690.853 987.7 691.18 986.393 691.18C985.353 691.18 984.42 690.947 983.593 690.48C982.78 690.013 982.14 689.353 981.673 688.5C981.207 687.633 980.973 686.633 980.973 685.5C980.973 684.367 981.2 683.373 981.653 682.52C982.107 681.667 982.74 681.013 983.553 680.56C984.38 680.093 985.327 679.86 986.393 679.86C987.433 679.86 988.353 680.087 989.153 680.54C989.953 680.993 990.567 681.62 990.993 682.42C991.433 683.207 991.653 684.1 991.653 685.1ZM989.773 684.72C989.773 684.027 989.62 683.433 989.313 682.94C989.007 682.433 988.587 682.053 988.053 681.8C987.533 681.533 986.953 681.4 986.313 681.4C985.393 681.4 984.607 681.693 983.953 682.28C983.313 682.867 982.947 683.68 982.853 684.72L989.773 684.72ZM1008.83 680.04L1002.23 696.16L1000.35 696.16L1002.51 690.88L998.088 680.04L1000.11 680.04L1003.55 688.92L1006.95 680.04L1008.83 680.04ZM1015.44 691.18C1014.41 691.18 1013.48 690.947 1012.64 690.48C1011.81 690.013 1011.16 689.353 1010.68 688.5C1010.21 687.633 1009.98 686.633 1009.98 685.5C1009.98 684.38 1010.22 683.393 1010.7 682.54C1011.19 681.673 1011.86 681.013 1012.7 680.56C1013.54 680.093 1014.48 679.86 1015.52 679.86C1016.56 679.86 1017.5 680.093 1018.34 680.56C1019.18 681.013 1019.84 681.667 1020.32 682.52C1020.81 683.373 1021.06 684.367 1021.06 685.5C1021.06 686.633 1020.8 687.633 1020.3 688.5C1019.8 689.353 1019.13 690.013 1018.28 690.48C1017.42 690.947 1016.48 691.18 1015.44 691.18ZM1015.44 689.58C1016.09 689.58 1016.7 689.427 1017.28 689.12C1017.85 688.813 1018.31 688.353 1018.66 687.74C1019.02 687.127 1019.2 686.38 1019.2 685.5C1019.2 684.62 1019.02 683.873 1018.68 683.26C1018.33 682.647 1017.88 682.193 1017.32 681.9C1016.76 681.593 1016.15 681.44 1015.5 681.44C1014.83 681.44 1014.22 681.593 1013.66 681.9C1013.11 682.193 1012.67 682.647 1012.34 683.26C1012 683.873 1011.84 684.62 1011.84 685.5C1011.84 686.393 1012 687.147 1012.32 687.76C1012.65 688.373 1013.09 688.833 1013.64 689.14C1014.18 689.433 1014.78 689.58 1015.44 689.58ZM1033.17 680.04L1033.17 691L1031.35 691L1031.35 689.38C1031 689.94 1030.52 690.38 1029.89 690.7C1029.28 691.007 1028.6 691.16 1027.85 691.16C1027 691.16 1026.23 690.987 1025.55 690.64C1024.87 690.28 1024.33 689.747 1023.93 689.04C1023.54 688.333 1023.35 687.473 1023.35 686.46L1023.35 680.04L1025.15 680.04L1025.15 686.22C1025.15 687.3 1025.42 688.133 1025.97 688.72C1026.52 689.293 1027.26 689.58 1028.21 689.58C1029.18 689.58 1029.95 689.28 1030.51 688.68C1031.07 688.08 1031.35 687.207 1031.35 686.06L1031.35 680.04L1033.17 680.04ZM1038.06 681.82C1038.38 681.193 1038.84 680.707 1039.42 680.36C1040.02 680.013 1040.75 679.84 1041.6 679.84L1041.6 681.72L1041.12 681.72C1039.08 681.72 1038.06 682.827 1038.06 685.04L1038.06 691L1036.24 691L1036.24 680.04L1038.06 680.04L1038.06 681.82ZM1053.5 681.54L1051.2 681.54L1051.2 691L1049.38 691L1049.38 681.54L1047.96 681.54L1047.96 680.04L1049.38 680.04L1049.38 679.26C1049.38 678.033 1049.69 677.14 1050.32 676.58C1050.96 676.007 1051.98 675.72 1053.38 675.72L1053.38 677.24C1052.58 677.24 1052.01 677.4 1051.68 677.72C1051.36 678.027 1051.2 678.54 1051.2 679.26L1051.2 680.04L1053.5 680.04L1053.5 681.54ZM1065.34 680.04L1065.34 691L1063.52 691L1063.52 689.38C1063.17 689.94 1062.68 690.38 1062.06 690.7C1061.44 691.007 1060.76 691.16 1060.02 691.16C1059.16 691.16 1058.4 690.987 1057.72 690.64C1057.04 690.28 1056.5 689.747 1056.1 689.04C1055.71 688.333 1055.52 687.473 1055.52 686.46L1055.52 680.04L1057.32 680.04L1057.32 686.22C1057.32 687.3 1057.59 688.133 1058.14 688.72C1058.68 689.293 1059.43 689.58 1060.38 689.58C1061.35 689.58 1062.12 689.28 1062.68 688.68C1063.24 688.08 1063.52 687.207 1063.52 686.06L1063.52 680.04L1065.34 680.04ZM1070.63 681.54L1070.63 688C1070.63 688.533 1070.74 688.913 1070.97 689.14C1071.2 689.353 1071.59 689.46 1072.15 689.46L1073.49 689.46L1073.49 691L1071.85 691C1070.84 691 1070.08 690.767 1069.57 690.3C1069.06 689.833 1068.81 689.067 1068.81 688L1068.81 681.54L1067.39 681.54L1067.39 680.04L1068.81 680.04L1068.81 677.28L1070.63 677.28L1070.63 680.04L1073.49 680.04L1073.49 681.54L1070.63 681.54ZM1085.42 680.04L1085.42 691L1083.6 691L1083.6 689.38C1083.25 689.94 1082.76 690.38 1082.14 690.7C1081.52 691.007 1080.84 691.16 1080.1 691.16C1079.24 691.16 1078.48 690.987 1077.8 690.64C1077.12 690.28 1076.58 689.747 1076.18 689.04C1075.79 688.333 1075.6 687.473 1075.6 686.46L1075.6 680.04L1077.4 680.04L1077.4 686.22C1077.4 687.3 1077.67 688.133 1078.22 688.72C1078.76 689.293 1079.51 689.58 1080.46 689.58C1081.43 689.58 1082.2 689.28 1082.76 688.68C1083.32 688.08 1083.6 687.207 1083.6 686.06L1083.6 680.04L1085.42 680.04ZM1090.31 681.82C1090.63 681.193 1091.08 680.707 1091.67 680.36C1092.27 680.013 1093 679.84 1093.85 679.84L1093.85 681.72L1093.37 681.72C1091.33 681.72 1090.31 682.827 1090.31 685.04L1090.31 691L1088.49 691L1088.49 680.04L1090.31 680.04L1090.31 681.82ZM1105.95 685.1C1105.95 685.447 1105.93 685.813 1105.89 686.2L1097.13 686.2C1097.2 687.28 1097.56 688.127 1098.23 688.74C1098.91 689.34 1099.73 689.64 1100.69 689.64C1101.48 689.64 1102.13 689.46 1102.65 689.1C1103.18 688.727 1103.56 688.233 1103.77 687.62L1105.73 687.62C1105.44 688.673 1104.85 689.533 1103.97 690.2C1103.09 690.853 1102 691.18 1100.69 691.18C1099.65 691.18 1098.72 690.947 1097.89 690.48C1097.08 690.013 1096.44 689.353 1095.97 688.5C1095.5 687.633 1095.27 686.633 1095.27 685.5C1095.27 684.367 1095.5 683.373 1095.95 682.52C1096.4 681.667 1097.04 681.013 1097.85 680.56C1098.68 680.093 1099.62 679.86 1100.69 679.86C1101.73 679.86 1102.65 680.087 1103.45 680.54C1104.25 680.993 1104.86 681.62 1105.29 682.42C1105.73 683.207 1105.95 684.1 1105.95 685.1ZM1104.07 684.72C1104.07 684.027 1103.92 683.433 1103.61 682.94C1103.3 682.433 1102.88 682.053 1102.35 681.8C1101.83 681.533 1101.25 681.4 1100.61 681.4C1099.69 681.4 1098.9 681.693 1098.25 682.28C1097.61 682.867 1097.24 683.68 1097.15 684.72L1104.07 684.72ZM927.36 707.06L927.36 721L925.54 721L925.54 707.06L927.36 707.06ZM939.042 707.06L939.042 708.54L935.242 708.54L935.242 721L933.422 721L933.422 708.54L929.602 708.54L929.602 707.06L939.042 707.06ZM948.434 712.08C948.808 711.427 949.354 710.893 950.074 710.48C950.794 710.067 951.614 709.86 952.534 709.86C953.521 709.86 954.408 710.093 955.194 710.56C955.981 711.027 956.601 711.687 957.054 712.54C957.508 713.38 957.734 714.36 957.734 715.48C957.734 716.587 957.508 717.573 957.054 718.44C956.601 719.307 955.974 719.98 955.174 720.46C954.388 720.94 953.508 721.18 952.534 721.18C951.588 721.18 950.754 720.973 950.034 720.56C949.328 720.147 948.794 719.62 948.434 718.98L948.434 721L946.614 721L946.614 706.2L948.434 706.2L948.434 712.08ZM955.874 715.48C955.874 714.653 955.708 713.933 955.374 713.32C955.041 712.707 954.588 712.24 954.014 711.92C953.454 711.6 952.834 711.44 952.154 711.44C951.488 711.44 950.868 711.607 950.294 711.94C949.734 712.26 949.281 712.733 948.934 713.36C948.601 713.973 948.434 714.687 948.434 715.5C948.434 716.327 948.601 717.053 948.934 717.68C949.281 718.293 949.734 718.767 950.294 719.1C950.868 719.42 951.488 719.58 952.154 719.58C952.834 719.58 953.454 719.42 954.014 719.1C954.588 718.767 955.041 718.293 955.374 717.68C955.708 717.053 955.874 716.32 955.874 715.48ZM969.85 710.04L969.85 721L968.03 721L968.03 719.38C967.683 719.94 967.197 720.38 966.57 720.7C965.957 721.007 965.277 721.16 964.53 721.16C963.677 721.16 962.91 720.987 962.23 720.64C961.55 720.28 961.01 719.747 960.61 719.04C960.223 718.333 960.03 717.473 960.03 716.46L960.03 710.04L961.83 710.04L961.83 716.22C961.83 717.3 962.103 718.133 962.65 718.72C963.197 719.293 963.943 719.58 964.89 719.58C965.863 719.58 966.63 719.28 967.19 718.68C967.75 718.08 968.03 717.207 968.03 716.06L968.03 710.04L969.85 710.04ZM976.803 721.18C975.963 721.18 975.209 721.04 974.543 720.76C973.876 720.467 973.349 720.067 972.963 719.56C972.576 719.04 972.363 718.447 972.323 717.78L974.203 717.78C974.256 718.327 974.509 718.773 974.963 719.12C975.429 719.467 976.036 719.64 976.783 719.64C977.476 719.64 978.023 719.487 978.423 719.18C978.823 718.873 979.023 718.487 979.023 718.02C979.023 717.54 978.809 717.187 978.383 716.96C977.956 716.72 977.296 716.487 976.403 716.26C975.589 716.047 974.923 715.833 974.403 715.62C973.896 715.393 973.456 715.067 973.083 714.64C972.723 714.2 972.543 713.627 972.543 712.92C972.543 712.36 972.709 711.847 973.043 711.38C973.376 710.913 973.849 710.547 974.463 710.28C975.076 710 975.776 709.86 976.563 709.86C977.776 709.86 978.756 710.167 979.503 710.78C980.249 711.393 980.649 712.233 980.703 713.3L978.883 713.3C978.843 712.727 978.609 712.267 978.183 711.92C977.769 711.573 977.209 711.4 976.503 711.4C975.849 711.4 975.329 711.54 974.943 711.82C974.556 712.1 974.363 712.467 974.363 712.92C974.363 713.28 974.476 713.58 974.703 713.82C974.943 714.047 975.236 714.233 975.583 714.38C975.943 714.513 976.436 714.667 977.063 714.84C977.849 715.053 978.489 715.267 978.983 715.48C979.476 715.68 979.896 715.987 980.243 716.4C980.603 716.813 980.789 717.353 980.803 718.02C980.803 718.62 980.636 719.16 980.303 719.64C979.969 720.12 979.496 720.5 978.883 720.78C978.283 721.047 977.589 721.18 976.803 721.18ZM984.312 708.26C983.965 708.26 983.672 708.14 983.432 707.9C983.192 707.66 983.072 707.367 983.072 707.02C983.072 706.673 983.192 706.38 983.432 706.14C983.672 705.9 983.965 705.78 984.312 705.78C984.645 705.78 984.925 705.9 985.152 706.14C985.392 706.38 985.512 706.673 985.512 707.02C985.512 707.367 985.392 707.66 985.152 707.9C984.925 708.14 984.645 708.26 984.312 708.26ZM985.192 710.04L985.192 721L983.372 721L983.372 710.04L985.192 710.04ZM993.634 709.84C994.967 709.84 996.047 710.247 996.874 711.06C997.701 711.86 998.114 713.02 998.114 714.54L998.114 721L996.314 721L996.314 714.8C996.314 713.707 996.041 712.873 995.494 712.3C994.947 711.713 994.201 711.42 993.254 711.42C992.294 711.42 991.527 711.72 990.954 712.32C990.394 712.92 990.114 713.793 990.114 714.94L990.114 721L988.294 721L988.294 710.04L990.114 710.04L990.114 711.6C990.474 711.04 990.961 710.607 991.574 710.3C992.201 709.993 992.887 709.84 993.634 709.84ZM1011.09 715.1C1011.09 715.447 1011.07 715.813 1011.03 716.2L1002.27 716.2C1002.33 717.28 1002.7 718.127 1003.37 718.74C1004.05 719.34 1004.87 719.64 1005.83 719.64C1006.61 719.64 1007.27 719.46 1007.79 719.1C1008.32 718.727 1008.69 718.233 1008.91 717.62L1010.87 717.62C1010.57 718.673 1009.99 719.533 1009.11 720.2C1008.23 720.853 1007.13 721.18 1005.83 721.18C1004.79 721.18 1003.85 720.947 1003.03 720.48C1002.21 720.013 1001.57 719.353 1001.11 718.5C1000.64 717.633 1000.41 716.633 1000.41 715.5C1000.41 714.367 1000.63 713.373 1001.09 712.52C1001.54 711.667 1002.17 711.013 1002.99 710.56C1003.81 710.093 1004.76 709.86 1005.83 709.86C1006.87 709.86 1007.79 710.087 1008.59 710.54C1009.39 710.993 1010 711.62 1010.43 712.42C1010.87 713.207 1011.09 714.1 1011.09 715.1ZM1009.21 714.72C1009.21 714.027 1009.05 713.433 1008.75 712.94C1008.44 712.433 1008.02 712.053 1007.49 711.8C1006.97 711.533 1006.39 711.4 1005.75 711.4C1004.83 711.4 1004.04 711.693 1003.39 712.28C1002.75 712.867 1002.38 713.68 1002.29 714.72L1009.21 714.72ZM1017.37 721.18C1016.53 721.18 1015.78 721.04 1015.11 720.76C1014.44 720.467 1013.92 720.067 1013.53 719.56C1013.14 719.04 1012.93 718.447 1012.89 717.78L1014.77 717.78C1014.82 718.327 1015.08 718.773 1015.53 719.12C1016 719.467 1016.6 719.64 1017.35 719.64C1018.04 719.64 1018.59 719.487 1018.99 719.18C1019.39 718.873 1019.59 718.487 1019.59 718.02C1019.59 717.54 1019.38 717.187 1018.95 716.96C1018.52 716.72 1017.86 716.487 1016.97 716.26C1016.16 716.047 1015.49 715.833 1014.97 715.62C1014.46 715.393 1014.02 715.067 1013.65 714.64C1013.29 714.2 1013.11 713.627 1013.11 712.92C1013.11 712.36 1013.28 711.847 1013.61 711.38C1013.94 710.913 1014.42 710.547 1015.03 710.28C1015.64 710 1016.34 709.86 1017.13 709.86C1018.34 709.86 1019.32 710.167 1020.07 710.78C1020.82 711.393 1021.22 712.233 1021.27 713.3L1019.45 713.3C1019.41 712.727 1019.18 712.267 1018.75 711.92C1018.34 711.573 1017.78 711.4 1017.07 711.4C1016.42 711.4 1015.9 711.54 1015.51 711.82C1015.12 712.1 1014.93 712.467 1014.93 712.92C1014.93 713.28 1015.04 713.58 1015.27 713.82C1015.51 714.047 1015.8 714.233 1016.15 714.38C1016.51 714.513 1017 714.667 1017.63 714.84C1018.42 715.053 1019.06 715.267 1019.55 715.48C1020.04 715.68 1020.46 715.987 1020.81 716.4C1021.17 716.813 1021.36 717.353 1021.37 718.02C1021.37 718.62 1021.2 719.16 1020.87 719.64C1020.54 720.12 1020.06 720.5 1019.45 720.78C1018.85 721.047 1018.16 721.18 1017.37 721.18ZM1027.82 721.18C1026.98 721.18 1026.23 721.04 1025.56 720.76C1024.89 720.467 1024.37 720.067 1023.98 719.56C1023.59 719.04 1023.38 718.447 1023.34 717.78L1025.22 717.78C1025.27 718.327 1025.53 718.773 1025.98 719.12C1026.45 719.467 1027.05 719.64 1027.8 719.64C1028.49 719.64 1029.04 719.487 1029.44 719.18C1029.84 718.873 1030.04 718.487 1030.04 718.02C1030.04 717.54 1029.83 717.187 1029.4 716.96C1028.97 716.72 1028.31 716.487 1027.42 716.26C1026.61 716.047 1025.94 715.833 1025.42 715.62C1024.91 715.393 1024.47 715.067 1024.1 714.64C1023.74 714.2 1023.56 713.627 1023.56 712.92C1023.56 712.36 1023.73 711.847 1024.06 711.38C1024.39 710.913 1024.87 710.547 1025.48 710.28C1026.09 710 1026.79 709.86 1027.58 709.86C1028.79 709.86 1029.77 710.167 1030.52 710.78C1031.27 711.393 1031.67 712.233 1031.72 713.3L1029.9 713.3C1029.86 712.727 1029.63 712.267 1029.2 711.92C1028.79 711.573 1028.23 711.4 1027.52 711.4C1026.87 711.4 1026.35 711.54 1025.96 711.82C1025.57 712.1 1025.38 712.467 1025.38 712.92C1025.38 713.28 1025.49 713.58 1025.72 713.82C1025.96 714.047 1026.25 714.233 1026.6 714.38C1026.96 714.513 1027.45 714.667 1028.08 714.84C1028.87 715.053 1029.51 715.267 1030 715.48C1030.49 715.68 1030.91 715.987 1031.26 716.4C1031.62 716.813 1031.81 717.353 1031.82 718.02C1031.82 718.62 1031.65 719.16 1031.32 719.64C1030.99 720.12 1030.51 720.5 1029.9 720.78C1029.3 721.047 1028.61 721.18 1027.82 721.18ZM1054.32 710.04L1050.9 721L1049.02 721L1046.38 712.3L1043.74 721L1041.86 721L1038.42 710.04L1040.28 710.04L1042.8 719.24L1045.52 710.04L1047.38 710.04L1050.04 719.26L1052.52 710.04L1054.32 710.04ZM1057.07 708.26C1056.72 708.26 1056.43 708.14 1056.19 707.9C1055.95 707.66 1055.83 707.367 1055.83 707.02C1055.83 706.673 1055.95 706.38 1056.19 706.14C1056.43 705.9 1056.72 705.78 1057.07 705.78C1057.4 705.78 1057.68 705.9 1057.91 706.14C1058.15 706.38 1058.27 706.673 1058.27 707.02C1058.27 707.367 1058.15 707.66 1057.91 707.9C1057.68 708.14 1057.4 708.26 1057.07 708.26ZM1057.95 710.04L1057.95 721L1056.13 721L1056.13 710.04L1057.95 710.04ZM1063.27 711.54L1063.27 718C1063.27 718.533 1063.38 718.913 1063.61 719.14C1063.83 719.353 1064.23 719.46 1064.79 719.46L1066.13 719.46L1066.13 721L1064.49 721C1063.47 721 1062.71 720.767 1062.21 720.3C1061.7 719.833 1061.45 719.067 1061.45 718L1061.45 711.54L1060.03 711.54L1060.03 710.04L1061.45 710.04L1061.45 707.28L1063.27 707.28L1063.27 710.04L1066.13 710.04L1066.13 711.54L1063.27 711.54ZM1073.77 709.84C1074.6 709.84 1075.35 710.02 1076.01 710.38C1076.68 710.727 1077.2 711.253 1077.57 711.96C1077.96 712.667 1078.15 713.527 1078.15 714.54L1078.15 721L1076.35 721L1076.35 714.8C1076.35 713.707 1076.08 712.873 1075.53 712.3C1074.99 711.713 1074.24 711.42 1073.29 711.42C1072.33 711.42 1071.57 711.72 1070.99 712.32C1070.43 712.92 1070.15 713.793 1070.15 714.94L1070.15 721L1068.33 721L1068.33 706.2L1070.15 706.2L1070.15 711.6C1070.51 711.04 1071.01 710.607 1071.63 710.3C1072.27 709.993 1072.99 709.84 1073.77 709.84ZM943.06 737.06L939.02 751L936.98 751L933.74 739.78L930.38 751L928.36 751.02L924.46 737.06L926.4 737.06L929.44 748.88L932.8 737.06L934.84 737.06L938.04 748.84L941.1 737.06L943.06 737.06ZM944.372 745.48C944.372 744.36 944.598 743.38 945.052 742.54C945.505 741.687 946.125 741.027 946.912 740.56C947.712 740.093 948.598 739.86 949.572 739.86C950.532 739.86 951.365 740.067 952.072 740.48C952.778 740.893 953.305 741.413 953.652 742.04L953.652 740.04L955.492 740.04L955.492 751L953.652 751L953.652 748.96C953.292 749.6 952.752 750.133 952.032 750.56C951.325 750.973 950.498 751.18 949.552 751.18C948.578 751.18 947.698 750.94 946.912 750.46C946.125 749.98 945.505 749.307 945.052 748.44C944.598 747.573 944.372 746.587 944.372 745.48ZM953.652 745.5C953.652 744.673 953.485 743.953 953.152 743.34C952.818 742.727 952.365 742.26 951.792 741.94C951.232 741.607 950.612 741.44 949.932 741.44C949.252 741.44 948.632 741.6 948.072 741.92C947.512 742.24 947.065 742.707 946.732 743.32C946.398 743.933 946.232 744.653 946.232 745.48C946.232 746.32 946.398 747.053 946.732 747.68C947.065 748.293 947.512 748.767 948.072 749.1C948.632 749.42 949.252 749.58 949.932 749.58C950.612 749.58 951.232 749.42 951.792 749.1C952.365 748.767 952.818 748.293 953.152 747.68C953.485 747.053 953.652 746.327 953.652 745.5ZM962.647 749.32L966.047 740.04L967.987 740.04L963.687 751L961.567 751L957.267 740.04L959.227 740.04L962.647 749.32ZM979.778 745.1C979.778 745.447 979.758 745.813 979.718 746.2L970.958 746.2C971.025 747.28 971.392 748.127 972.058 748.74C972.738 749.34 973.558 749.64 974.518 749.64C975.305 749.64 975.958 749.46 976.478 749.1C977.012 748.727 977.385 748.233 977.598 747.62L979.558 747.62C979.265 748.673 978.678 749.533 977.798 750.2C976.918 750.853 975.825 751.18 974.518 751.18C973.478 751.18 972.545 750.947 971.718 750.48C970.905 750.013 970.265 749.353 969.798 748.5C969.332 747.633 969.098 746.633 969.098 745.5C969.098 744.367 969.325 743.373 969.778 742.52C970.232 741.667 970.865 741.013 971.678 740.56C972.505 740.093 973.452 739.86 974.518 739.86C975.558 739.86 976.478 740.087 977.278 740.54C978.078 740.993 978.692 741.62 979.118 742.42C979.558 743.207 979.778 744.1 979.778 745.1ZM977.898 744.72C977.898 744.027 977.745 743.433 977.438 742.94C977.132 742.433 976.712 742.053 976.178 741.8C975.658 741.533 975.078 741.4 974.438 741.4C973.518 741.4 972.732 741.693 972.078 742.28C971.438 742.867 971.072 743.68 970.978 744.72L977.898 744.72ZM993.141 751L991.321 751L984.001 739.9L984.001 751L982.181 751L982.181 737.04L984.001 737.04L991.321 748.12L991.321 737.04L993.141 737.04L993.141 751ZM1006.24 745.1C1006.24 745.447 1006.22 745.813 1006.18 746.2L997.423 746.2C997.49 747.28 997.856 748.127 998.523 748.74C999.203 749.34 1000.02 749.64 1000.98 749.64C1001.77 749.64 1002.42 749.46 1002.94 749.1C1003.48 748.727 1003.85 748.233 1004.06 747.62L1006.02 747.62C1005.73 748.673 1005.14 749.533 1004.26 750.2C1003.38 750.853 1002.29 751.18 1000.98 751.18C999.943 751.18 999.01 750.947 998.183 750.48C997.37 750.013 996.73 749.353 996.263 748.5C995.796 747.633 995.563 746.633 995.563 745.5C995.563 744.367 995.79 743.373 996.243 742.52C996.696 741.667 997.33 741.013 998.143 740.56C998.97 740.093 999.916 739.86 1000.98 739.86C1002.02 739.86 1002.94 740.087 1003.74 740.54C1004.54 740.993 1005.16 741.62 1005.58 742.42C1006.02 743.207 1006.24 744.1 1006.24 745.1ZM1004.36 744.72C1004.36 744.027 1004.21 743.433 1003.9 742.94C1003.6 742.433 1003.18 742.053 1002.64 741.8C1002.12 741.533 1001.54 741.4 1000.9 741.4C999.983 741.4 999.196 741.693 998.543 742.28C997.903 742.867 997.536 743.68 997.443 744.72L1004.36 744.72ZM1010.87 741.54L1010.87 748C1010.87 748.533 1010.98 748.913 1011.21 749.14C1011.43 749.353 1011.83 749.46 1012.39 749.46L1013.73 749.46L1013.73 751L1012.09 751C1011.07 751 1010.31 750.767 1009.81 750.3C1009.3 749.833 1009.05 749.067 1009.05 748L1009.05 741.54L1007.63 741.54L1007.63 740.04L1009.05 740.04L1009.05 737.28L1010.87 737.28L1010.87 740.04L1013.73 740.04L1013.73 741.54L1010.87 741.54ZM1016.51 751.12C1016.16 751.12 1015.87 751 1015.63 750.76C1015.39 750.52 1015.27 750.227 1015.27 749.88C1015.27 749.533 1015.39 749.24 1015.63 749C1015.87 748.76 1016.16 748.64 1016.51 748.64C1016.84 748.64 1017.12 748.76 1017.35 749C1017.59 749.24 1017.71 749.533 1017.71 749.88C1017.71 750.227 1017.59 750.52 1017.35 750.76C1017.12 751 1016.84 751.12 1016.51 751.12Z" fill="#11112B"/>
</g>
<defs>
<clipPath id="clip0_130_18">
<rect width="2719.13" height="1301.04" fill="white" transform="matrix(-0.970066 -0.242841 -0.242841 0.970066 2824.68 -123.683)"/>
</clipPath>
</defs>
</svg>
