<svg xmlns="http://www.w3.org/2000/svg" width="110" height="136" viewBox="0 0 110 136" fill="none">
  <path d="M90.4492 107.765H19.5508C14.3838 107.765 9.49738 105.291 5.79176 100.798C2.05691 96.2697 0 90.2649 0 83.89C0 77.5151 2.05691 71.5103 5.79176 66.9822C8.71664 63.436 12.3771 61.1474 16.3307 60.3402C16.329 60.2325 16.3281 60.124 16.3281 60.015C16.3281 42.4621 27.8936 28.1816 42.1094 28.1816C47.3812 28.1816 52.4474 30.1412 56.7604 33.8488C59.7966 36.4586 62.3174 39.8024 64.1912 43.6755C67.216 41.3588 70.7049 40.1191 74.3359 40.1191C83.9794 40.1191 91.9965 48.8802 93.4401 60.2951C97.4815 61.0591 101.227 63.3673 104.208 66.9822C107.943 71.5103 110 77.5148 110 83.89C110 90.2651 107.943 96.2697 104.208 100.798C100.503 105.291 95.6162 107.765 90.4492 107.765ZM19.5508 67.9733C12.3243 67.9733 6.44531 75.1135 6.44531 83.89C6.44531 92.6664 12.3243 99.8066 19.5508 99.8066H90.4492C97.6757 99.8066 103.555 92.6664 103.555 83.89C103.555 75.1135 97.6757 67.9733 90.4492 67.9733H87.2266V63.9941C87.2266 55.2177 81.4438 48.0775 74.3359 48.0775C70.9487 48.0775 67.7445 49.701 65.3136 52.649L61.8447 56.8558L60.0583 51.272C57.1173 42.0798 50.0719 36.14 42.1094 36.14C31.4475 36.14 22.7734 46.8503 22.7734 60.015C22.7734 60.9551 22.8929 61.9645 23.0192 63.0333L23.5965 67.9733H19.5508Z" fill="white"/>
</svg>