<svg xmlns="http://www.w3.org/2000/svg" width="48" height="48" viewBox="0 0 48 48" fill="none">
  <path d="M19.3928 26.4957C19.2488 26.4957 16.0808 26.4957 14.6408 26.4957C13.8728 26.4957 13.6328 26.2077 13.6328 25.4877C13.6328 23.5677 13.6328 21.5997 13.6328 19.6797C13.6328 18.9117 13.9208 18.6717 14.6408 18.6717H19.3928C19.3928 18.5277 19.3928 15.7437 19.3928 14.4477C19.3928 12.5277 19.7288 10.7037 20.6888 9.02366C21.6968 7.29566 23.1368 6.14366 24.9608 5.47166C26.1608 5.03966 27.3608 4.84766 28.6568 4.84766H33.3608C34.0328 4.84766 34.3208 5.13566 34.3208 5.80766V11.2797C34.3208 11.9517 34.0328 12.2397 33.3608 12.2397C32.0648 12.2397 30.7688 12.2397 29.4728 12.2877C28.1768 12.2877 27.5048 12.9117 27.5048 14.2557C27.4568 15.6957 27.5048 17.0877 27.5048 18.5757H33.0728C33.8408 18.5757 34.1288 18.8637 34.1288 19.6317V25.4397C34.1288 26.2077 33.8888 26.4477 33.0728 26.4477C31.3448 26.4477 27.6488 26.4477 27.5048 26.4477V42.0957C27.5048 42.9117 27.2648 43.1997 26.4008 43.1997C24.3848 43.1997 22.4168 43.1997 20.4008 43.1997C19.6808 43.1997 19.3928 42.9117 19.3928 42.1917C19.3928 37.1517 19.3928 26.6397 19.3928 26.4957Z" fill="white"/>
</svg>