<svg xmlns="http://www.w3.org/2000/svg" width="63" height="73" viewBox="0 0 63 73" fill="none">
  <g clip-path="url(#clip0_130_579)">
    <path d="M53.7739 11.3116C47.8244 4.5483 39.914 0.82373 31.5001 0.82373C23.0861 0.82373 15.1756 4.5483 9.2262 11.3115C3.2765 18.0747 0 27.0669 0 36.6315C0 46.1961 3.2765 55.1882 9.2262 61.9513C15.1756 68.7145 23.0861 72.4391 31.5001 72.4391C39.9142 72.4391 47.8244 68.7145 53.7741 61.9512C59.7235 55.1882 63.0001 46.1959 63.0001 36.6313C63.0001 27.0668 59.7235 18.0747 53.7739 11.3116ZM11.8391 14.2819C14.609 11.1331 17.8608 8.73151 21.405 7.16394C20.461 8.50365 19.5777 10.0435 18.7681 11.7754C17.8279 13.7868 17.0167 15.9959 16.341 18.3554C14.0004 17.9138 11.8317 17.3708 9.89422 16.7336C10.5015 15.8851 11.1493 15.066 11.8391 14.2819ZM7.6571 20.348C9.92326 21.1729 12.5149 21.8685 15.3427 22.4194C14.5552 26.2193 14.0917 30.3082 13.9811 34.5313H3.75737C4.04776 29.4632 5.38676 24.6264 7.6571 20.348ZM7.45592 52.5265C5.30813 48.3444 4.03902 43.6471 3.75724 38.7317H13.9881C14.109 42.8341 14.5632 46.8068 15.3242 50.5071C12.4382 51.0389 9.78151 51.7169 7.45592 52.5265ZM11.8391 58.9811C11.0541 58.0886 10.3229 57.1514 9.64505 56.1759C11.6535 55.5429 13.8989 55.0067 16.3159 54.5768C16.9964 56.969 17.8164 59.2073 18.768 61.2434C19.6503 63.1308 20.6202 64.7891 21.6608 66.2097C18.0174 64.6455 14.6756 62.2052 11.8391 58.9811ZM29.6524 67.6996C26.8459 66.806 24.1911 63.8927 22.0313 59.2723C21.276 57.6565 20.6125 55.8937 20.0441 54.0149C23.0871 53.6342 26.3251 53.4091 29.6524 53.3562V67.6996ZM29.6524 49.1554C25.9625 49.2126 22.3659 49.476 18.9977 49.9257C18.2548 46.4343 17.8077 42.6553 17.6851 38.7318H29.6525V49.1554H29.6524ZM29.6524 34.5311H17.6781C17.7902 30.498 18.2443 26.6136 19.0104 23.0334C22.357 23.5089 25.9461 23.7982 29.6524 23.881V34.5311ZM29.6524 19.6799C26.3122 19.6034 23.0813 19.3558 20.0599 18.9518C20.6248 17.0926 21.2831 15.3476 22.0313 13.7464C24.1909 9.12609 26.8459 6.2128 29.6524 5.31914V19.6799ZM55.4594 20.5711C57.6588 24.7944 58.9573 29.5509 59.243 34.5311H49.0193C48.9099 30.3567 48.4552 26.3137 47.6842 22.5513C50.5307 22.0288 53.1544 21.364 55.4594 20.5711ZM51.1609 14.2819C51.9028 15.1252 52.5958 16.0092 53.2421 16.9269C51.2644 17.5408 49.062 18.0618 46.6955 18.4811C46.0129 16.0742 45.1891 13.8226 44.2321 11.7754C43.4226 10.0435 42.5392 8.50365 41.5952 7.16394C45.1392 8.73151 48.3911 11.1331 51.1609 14.2819ZM33.3477 38.7318H45.3152C45.1916 42.6858 44.7386 46.4934 43.985 50.0074C40.6389 49.5344 37.0515 49.2478 33.3477 49.1673V38.7318ZM33.3477 34.5311V23.895C37.0398 23.8399 40.6391 23.5787 44.0105 23.1307C44.7642 26.6839 45.211 30.5345 45.3221 34.5311H33.3477ZM33.3475 5.31914H33.3476C36.1541 6.2128 38.8089 9.12609 40.9687 13.7464C41.7288 15.3727 42.3961 17.1479 42.9669 19.0404C39.9199 19.4197 36.6783 19.6431 33.3475 19.6941V5.31914ZM33.3477 67.6996V53.3684C36.6848 53.4428 39.9132 53.6881 42.9335 54.0896C42.37 55.9404 41.714 57.6779 40.9688 59.2723C38.8091 63.8927 36.1542 66.806 33.3477 67.6996ZM51.1609 58.9811C48.3245 62.2054 44.9827 64.6455 41.3392 66.2095C42.3798 64.789 43.3497 63.1308 44.232 61.2434C45.1696 59.2375 45.979 57.0349 46.6536 54.6825C49.0487 55.1319 51.2645 55.6876 53.2384 56.3413C52.5933 57.2569 51.9014 58.1392 51.1609 58.9811ZM55.4458 52.7183C53.1528 51.8803 50.5239 51.1752 47.6537 50.6187C48.4284 46.8869 48.8901 42.8753 49.0123 38.7318H59.2431C58.9567 43.7223 57.6536 48.4885 55.4458 52.7183Z" fill="white"/>
  </g>
  <defs>
    <clipPath id="clip0_130_579">
      <rect width="63" height="71.6154" fill="white" transform="translate(0 0.82373)"/>
    </clipPath>
  </defs>
</svg>