<svg xmlns="http://www.w3.org/2000/svg" width="80" height="104" viewBox="0 0 80 104" fill="none">
  <path d="M72.9688 6.38672H7.03125C3.15422 6.38672 0 10.4274 0 15.3941V71.0944C0 76.0611 3.15422 80.1018 7.03125 80.1018H30.7022V91.5143H27.173C25.8786 91.5143 24.8292 92.8586 24.8292 94.5168C24.8292 96.175 25.8786 97.5193 27.173 97.5193H52.8272C54.1216 97.5193 55.1709 96.175 55.1709 94.5168C55.1709 92.8586 54.1216 91.5143 52.8272 91.5143H49.298V80.1018H72.9688C76.8458 80.1018 80 76.0611 80 71.0944V15.3941C80 10.4274 76.8458 6.38672 72.9688 6.38672ZM44.6103 91.5145H35.3897V80.102H44.6103V91.5145ZM75.3125 71.0946C75.3125 72.7501 74.2611 74.0971 72.9688 74.0971H7.03125C5.73891 74.0971 4.6875 72.7501 4.6875 71.0946V66.5302H75.3125V71.0946ZM75.3125 60.5253H4.6875V15.3941C4.6875 13.7385 5.73891 12.3916 7.03125 12.3916H72.9688C74.2611 12.3916 75.3125 13.7385 75.3125 15.3941V60.5253Z" fill="white"/>
  <path d="M28.4802 44.125L22.1313 38.5722L28.4802 33.0195C29.5493 32.0845 29.8243 30.2164 29.0945 28.8469C28.3648 27.4775 26.9063 27.1253 25.8373 28.06L16.653 36.0924C16.0134 36.6519 15.6309 37.58 15.6309 38.572C15.6309 39.5641 16.0134 40.4926 16.653 41.0521L25.8373 49.0845C26.2415 49.4382 26.7015 49.6075 27.1566 49.6075C27.9051 49.6075 28.6407 49.1491 29.0945 48.2976C29.8243 46.9281 29.5493 45.06 28.4802 44.125Z" fill="white"/>
  <path d="M63.3458 36.0929L54.1616 28.0605C53.0927 27.1257 51.6344 27.478 50.9044 28.8474C50.1745 30.2169 50.4495 32.085 51.5186 33.02L57.8675 38.5727L51.5186 44.1251C50.4495 45.0601 50.1745 46.9282 50.9044 48.2977C51.3583 49.1494 52.0936 49.6076 52.8422 49.6076C53.2974 49.6076 53.7574 49.438 54.1616 49.0846L63.3458 41.0522C63.9855 40.4927 64.368 39.5645 64.368 38.5725C64.368 37.5805 63.9853 36.6526 63.3458 36.0929Z" fill="white"/>
  <path d="M45.8527 25.2343C44.7246 24.4219 43.2956 24.9347 42.6612 26.3805L33.2521 47.8227C32.6181 49.2679 33.0185 51.0984 34.147 51.911C34.5101 52.1726 34.9043 52.2967 35.2932 52.2967C36.1126 52.2967 36.9082 51.7453 37.3384 50.7651L46.7474 29.3229C47.3818 27.8775 46.9812 26.047 45.8527 25.2343Z" fill="white"/>
</svg>