<svg xmlns="http://www.w3.org/2000/svg" width="71" height="94" viewBox="0 0 71 94" fill="none">
  <g clip-path="url(#clip0_146_763)">
    <path d="M70.9611 3.31873C70.9026 1.93818 70.057 0.835286 68.9986 0.759688C68.971 0.757568 68.3058 0.710938 67.1579 0.710938C63.9907 0.710938 57.6026 1.05714 50.4073 3.37738C41.3135 6.30947 33.9531 11.3823 28.5302 18.4554C26.1701 21.5337 24.1036 25.0826 22.3371 29.0809L19.9683 25.9919C19.3465 25.1808 18.4012 24.9675 17.6071 25.4585L1.18967 35.6007C0.439973 36.0642 -0.0269608 37.0646 0.00120683 38.1463L0.865739 70.8296C0.893907 71.9092 1.41122 72.8637 2.1815 73.2601C2.42905 73.388 2.68743 73.4494 2.94365 73.4494C3.48534 73.4494 4.01782 73.1732 4.41487 72.6546L18.4971 54.287L22.7391 59.8191L8.65628 78.1867C7.84429 79.2465 7.84429 80.9641 8.65628 82.0239C9.06255 82.5538 9.59503 82.8187 10.127 82.8187C10.6594 82.8187 11.1919 82.5538 11.5982 82.0239L25.6804 63.6555L29.9218 69.1877L15.8401 87.556C15.254 88.3197 15.072 89.4643 15.3754 90.469C15.6793 91.4744 16.4111 92.1484 17.2388 92.1859L42.2967 93.3128C42.321 93.3142 42.3449 93.3142 42.3687 93.3142C43.1704 93.3142 43.9033 92.7122 44.2484 91.7626L52.0254 70.3499C52.4018 69.3134 52.2377 68.0805 51.6164 67.2694L49.2471 64.1805C52.313 61.8758 55.0339 59.1804 57.3935 56.1028C60.8435 51.6029 63.7036 46.0065 65.8936 39.4683C67.6265 34.2965 68.9471 28.5241 69.8182 22.3123C71.2964 11.7723 70.9752 3.65928 70.9611 3.31873ZM4.20632 39.741L18.0632 31.18L20.3405 34.1509C18.7642 38.6642 17.5139 43.653 16.5952 49.094L4.85797 64.403L4.20632 39.741ZM47.6382 69.755L41.0741 87.8287L22.166 86.978L33.9027 71.669C38.0748 70.4707 41.8996 68.84 45.3599 66.784L47.6382 69.755ZM65.7073 21.4673C64.4322 30.484 61.4437 43.1464 54.4521 52.2656C51.8244 55.693 48.6756 58.6003 45.0333 60.9736C44.9179 61.0315 44.8068 61.105 44.699 61.1912C41.3747 63.31 37.6452 64.9902 33.5295 66.2195L28.6223 59.8191L35.7921 50.4675C36.6046 49.4077 36.6046 47.6901 35.7921 46.6303C34.9801 45.5705 33.6627 45.5712 32.8507 46.6303L25.6804 55.9819L20.7733 49.5815C21.7153 44.214 23.0039 39.3503 24.6285 35.0143C24.6945 34.8737 24.7509 34.7274 24.7958 34.5762C26.6154 29.8263 28.8439 25.7192 31.4716 22.2918C42.7484 7.58334 60.9903 6.18512 66.8356 6.13778C66.8199 9.23449 66.6379 14.8931 65.7073 21.4673Z" fill="white"/>
    <path d="M49.0106 40.0722C51.198 40.0722 53.2547 38.9609 54.8023 36.943C57.995 32.778 57.995 26.001 54.8018 21.8367C53.2547 19.8189 51.1985 18.7075 49.0106 18.7075C46.8227 18.7075 44.7665 19.8189 43.2194 21.8367C41.6724 23.8539 40.8203 26.5366 40.8203 29.3902C40.8203 32.2439 41.6724 34.9259 43.2194 36.9437C44.7665 38.9609 46.8227 40.0722 49.0106 40.0722ZM46.1613 25.6732C46.9224 24.6805 47.9343 24.1337 49.0106 24.1337C50.087 24.1337 51.0988 24.6805 51.8604 25.6732C53.4313 27.7221 53.4313 31.0569 51.8604 33.1066C51.0994 34.0992 50.087 34.6461 49.0106 34.6461C47.9343 34.6461 46.9224 34.0992 46.1608 33.1066C45.3997 32.1139 44.9805 30.7941 44.9805 29.3902C44.9805 27.9856 45.3997 26.6659 46.1613 25.6732Z" fill="white"/>
  </g>
  <defs>
    <clipPath id="clip0_146_763">
      <rect width="71" height="92.6061" fill="white" transform="translate(0 0.710938)"/>
    </clipPath>
  </defs>
</svg>